<svg width="274" height="202" viewBox="0 0 274 202" fill="none" xmlns="http://www.w3.org/2000/svg">
<path d="M273.498 12.5663L263.067 0.00197535L250.502 10.4329L260.933 22.9972L273.498 12.5663ZM2.5 85L0.500293 84.9661L2.5 85ZM75 202L67.7839 180.062L52.3934 197.281L75 202ZM67.7648 192.597C66.0886 190.983 64.217 189.147 62.1975 187.111L59.3577 189.928C61.4003 191.987 63.2937 193.845 64.9905 195.478L67.7648 192.597ZM56.7738 181.521C55.0649 179.72 53.2932 177.815 51.4798 175.815L48.5168 178.502C50.3516 180.525 52.1439 182.453 53.8723 184.274L56.7738 181.521ZM46.3006 169.968C44.6404 168.047 42.9631 166.061 41.2833 164.016L38.1923 166.555C39.8947 168.627 41.5937 170.639 43.2747 172.584L46.3006 169.968ZM36.4144 157.921C34.8406 155.894 33.2775 153.822 31.7372 151.709L28.5052 154.066C30.0706 156.213 31.6579 158.317 33.2548 160.374L36.4144 157.921ZM27.2574 145.349C25.8047 143.21 24.3858 141.039 23.012 138.843L19.6206 140.964C21.0227 143.206 22.4692 145.418 23.9483 147.596L27.2574 145.349ZM19.0368 132.18C17.7569 129.923 16.5345 127.647 15.3811 125.357L11.8086 127.156C12.9937 129.509 14.2474 131.843 15.5576 134.153L19.0368 132.18ZM12.0982 118.356C11.0655 115.972 10.1189 113.581 9.27051 111.189L5.50059 112.526C6.38152 115.01 7.36188 117.485 8.4279 119.946L12.0982 118.356ZM6.9898 103.857C6.32461 101.355 5.78135 98.8609 5.37336 96.3814L1.42643 97.0309C1.85697 99.6474 2.42835 102.268 3.12411 104.885L6.9898 103.857ZM4.55989 88.8197C4.49908 87.5514 4.47842 86.2892 4.49972 85.0339L0.500293 84.9661C0.477476 86.3107 0.499661 87.6595 0.564476 89.0112L4.55989 88.8197ZM4.49972 85.0339C4.52258 83.6864 4.59628 82.3648 4.71908 81.0684L0.736907 80.6912C0.604193 82.0922 0.524881 83.517 0.500293 84.9661L4.49972 85.0339ZM6.07051 73.4398C6.73903 70.9113 7.613 68.4845 8.6792 66.1541L5.04184 64.4899C3.88205 67.0248 2.93078 69.6662 2.2034 72.4173L6.07051 73.4398ZM12.4806 59.3895C13.9139 57.2601 15.5268 55.2175 17.3084 53.2583L14.349 50.5673C12.4448 52.6613 10.7103 54.856 9.16226 57.1559L12.4806 59.3895ZM22.9547 47.7925C24.9115 46.113 27.0047 44.5039 29.2248 42.9628L26.9438 39.6769C24.6201 41.2899 22.4177 42.982 20.3495 44.7572L22.9547 47.7925ZM35.961 38.7098C38.2055 37.4179 40.5466 36.1817 42.9763 34.9994L41.226 31.4026C38.7193 32.6225 36.296 33.9017 33.9655 35.2431L35.961 38.7098ZM50.2473 31.7262C52.6714 30.7162 55.1649 29.7519 57.7211 28.8316L56.3662 25.0681C53.7523 26.0092 51.1974 26.997 48.7088 28.0339L50.2473 31.7262ZM65.3554 26.2682C67.8784 25.4784 70.4506 24.7264 73.0662 24.0108L72.0105 20.1526C69.351 20.8803 66.7322 21.6458 64.1604 22.4509L65.3554 26.2682ZM80.8448 22.0173C83.4357 21.396 86.0609 20.8069 88.7153 20.2486L87.892 16.3343C85.2029 16.8998 82.5411 17.4971 79.912 18.1276L80.8448 22.0173ZM96.6396 18.687C99.2633 18.2033 101.909 17.7472 104.572 17.3175L103.935 13.3686C101.244 13.8028 98.5688 14.2639 95.9144 14.7533L96.6396 18.687ZM112.56 16.1131C115.22 15.7391 117.892 15.3895 120.572 15.063L120.088 11.0924C117.385 11.4217 114.688 11.7745 112.003 12.1521L112.56 16.1131ZM128.596 14.155C131.277 13.8742 133.961 13.6151 136.643 13.3764L136.289 9.39218C133.587 9.63262 130.882 9.89371 128.179 10.1768L128.596 14.155ZM144.691 12.7195C147.393 12.5183 150.088 12.3367 152.771 12.1733L152.528 8.18067C149.827 8.34516 147.114 8.528 144.394 8.73058L144.691 12.7195ZM160.85 11.733C163.553 11.6026 166.238 11.4897 168.901 11.3929L168.756 7.39552C166.077 7.49292 163.376 7.60648 160.657 7.73763L160.85 11.733ZM177.019 11.1441C179.751 11.0756 182.454 11.0232 185.121 10.9851L185.063 6.98547C182.383 7.02378 179.666 7.07651 176.919 7.14531L177.019 11.1441ZM193.19 10.9114C195.931 10.9003 198.625 10.9034 201.265 10.9189L201.288 6.91896C198.636 6.90344 195.928 6.90027 193.174 6.9114L193.19 10.9114ZM209.397 11.006C212.178 11.0492 214.885 11.1049 217.509 11.1704L217.609 7.17169C214.973 7.1058 212.253 7.04985 209.459 7.00645L209.397 11.006ZM225.606 11.4109C228.435 11.5081 231.138 11.615 233.7 11.7274L233.875 7.73124C231.301 7.61833 228.586 7.51096 225.744 7.41322L225.606 11.4109ZM241.793 12.1219C244.762 12.2813 247.45 12.4423 249.823 12.5951L250.08 8.60332C247.693 8.44967 244.991 8.28786 242.008 8.12765L241.793 12.1219ZM257.946 13.1694C259.207 13.2677 260.177 13.3483 260.83 13.4043C261.156 13.4323 261.404 13.454 261.569 13.4688C261.652 13.4762 261.714 13.4818 261.755 13.4855C261.776 13.4874 261.791 13.4888 261.801 13.4897C261.806 13.4902 261.81 13.4905 261.812 13.4908C261.813 13.4909 261.814 13.491 261.815 13.491C261.815 13.491 261.815 13.491 261.815 13.4911C261.815 13.4911 261.815 13.4911 261.815 13.4911C261.815 13.4911 261.815 13.4911 261.815 13.4911C261.815 13.4911 261.815 13.4911 262 11.4996C262.185 9.50816 262.185 9.50816 262.185 9.50815C262.185 9.50815 262.185 9.50815 262.185 9.50814C262.185 9.50814 262.184 9.50813 262.184 9.50812C262.184 9.50809 262.184 9.50806 262.183 9.50803C262.183 9.50795 262.181 9.50785 262.18 9.50771C262.177 9.50744 262.173 9.50704 262.167 9.50653C262.156 9.5055 262.139 9.50399 262.118 9.50201C262.074 9.49806 262.01 9.49223 261.925 9.48464C261.755 9.46947 261.503 9.44725 261.171 9.41887C260.508 9.3621 259.528 9.28065 258.256 9.18153L257.946 13.1694Z" fill="#7C69EF"/>
</svg>
