<svg width="219" height="240" viewBox="0 0 219 240" fill="none" xmlns="http://www.w3.org/2000/svg">
<path d="M0.471848 12.2904L12.6596 23.159L23.5282 10.9713L11.3404 0.102718L0.471848 12.2904ZM216.5 97.6309L218.499 97.5591L216.5 97.6309ZM65.5 233.131L87.7327 239.379L82.0276 217.001L65.5 233.131ZM12.1142 13.6276C13.4138 13.5533 14.7392 13.4848 16.089 13.4227L15.905 9.4269C14.5406 9.48972 13.2004 9.55892 11.8858 9.63414L12.1142 13.6276ZM24.1541 13.1362C26.7764 13.0697 29.4699 13.0265 32.2258 13.0089L32.2004 9.00901C29.4193 9.02673 26.7004 9.0703 24.0527 9.13747L24.1541 13.1362ZM40.2806 13.0307C42.9213 13.0615 45.6075 13.1159 48.3321 13.1956L48.4492 9.19733C45.7009 9.11689 42.9912 9.06203 40.3272 9.03095L40.2806 13.0307ZM56.3833 13.5018C59.0388 13.6261 61.7228 13.7749 64.4292 13.9497L64.6869 9.95801C61.9566 9.78168 59.249 9.63158 56.5704 9.50619L56.3833 13.5018ZM72.4654 14.5416C75.1261 14.762 77.8021 15.0081 80.488 15.2815L80.8931 11.3021C78.1816 11.0261 75.4806 10.7776 72.7956 10.5552L72.4654 14.5416ZM88.4926 16.1752C91.1504 16.4987 93.8125 16.8498 96.4735 17.2298L97.0391 13.27C94.3498 12.8859 91.6603 12.5312 88.9758 12.2045L88.4926 16.1752ZM104.428 18.4548C107.076 18.8931 109.719 19.3616 112.35 19.8614L113.096 15.9317C110.433 15.4257 107.76 14.9518 105.081 14.5085L104.428 18.4548ZM120.231 21.4627C122.861 22.0329 125.473 22.6363 128.063 23.2744L129.02 19.3906C126.393 18.7432 123.744 18.1313 121.079 17.5536L120.231 21.4627ZM135.832 25.3147C138.428 26.0402 140.994 26.8031 143.525 27.605L144.733 23.7919C142.157 22.9755 139.547 22.1995 136.909 21.4623L135.832 25.3147ZM151.12 30.1702C153.658 31.0832 156.152 32.0391 158.594 33.0395L160.11 29.3379C157.611 28.3145 155.064 27.3379 152.474 26.4064L151.12 30.1702ZM165.915 36.2462C168.356 37.3896 170.733 38.583 173.041 39.828L174.94 36.3078C172.563 35.0248 170.117 33.7976 167.612 32.6239L165.915 36.2462ZM179.916 43.8267C182.194 45.2559 184.385 46.7441 186.481 48.293L188.858 45.0763C186.676 43.4634 184.401 41.9183 182.042 40.4384L179.916 43.8267ZM192.642 53.2723C194.639 55.042 196.52 56.881 198.277 58.7913L201.221 56.084C199.367 54.0676 197.388 52.1335 195.295 50.2786L192.642 53.2723ZM203.254 64.8645C204.794 66.9889 206.193 69.1924 207.439 71.4777L210.951 69.5625C209.62 67.1217 208.129 64.7739 206.492 62.5164L203.254 64.8645ZM210.71 78.5743C211.624 80.9767 212.384 83.4632 212.98 86.0372L216.877 85.135C216.24 82.3836 215.427 79.7231 214.448 77.1515L210.71 78.5743ZM214.238 93.749C214.365 95.0459 214.453 96.3637 214.501 97.7026L218.499 97.5591C218.448 96.1391 218.354 94.7393 218.219 93.3596L214.238 93.749ZM214.501 97.7026C214.547 98.9872 214.564 100.262 214.553 101.528L218.553 101.564C218.565 100.238 218.547 98.9035 218.499 97.5591L214.501 97.7026ZM214.139 109.108C213.883 111.65 213.511 114.153 213.031 116.617L216.957 117.383C217.46 114.799 217.85 112.175 218.119 109.509L214.139 109.108ZM211.237 123.995C210.526 126.434 209.707 128.833 208.787 131.192L212.514 132.645C213.475 130.18 214.332 127.669 215.077 125.115L211.237 123.995ZM205.726 138.163C204.612 140.44 203.405 142.677 202.109 144.875L205.556 146.905C206.901 144.622 208.159 142.294 209.319 139.921L205.726 138.163ZM197.996 151.309C196.556 153.397 195.037 155.447 193.445 157.458L196.582 159.94C198.225 157.863 199.797 155.743 201.289 153.581L197.996 151.309ZM188.511 163.322C186.817 165.221 185.059 167.082 183.245 168.906L186.081 171.727C187.944 169.854 189.751 167.94 191.495 165.986L188.511 163.322ZM177.69 174.218C175.803 175.938 173.866 177.622 171.886 179.27L174.445 182.344C176.469 180.66 178.451 178.937 180.384 177.175L177.69 174.218ZM165.866 184.072C163.831 185.63 161.759 187.152 159.658 188.638L161.967 191.904C164.108 190.39 166.22 188.838 168.297 187.249L165.866 184.072ZM153.283 192.98C151.131 194.392 148.955 195.769 146.761 197.11L148.847 200.523C151.076 199.161 153.289 197.761 155.477 196.325L153.283 192.98ZM140.109 201.036C137.865 202.317 135.607 203.561 133.342 204.769L135.224 208.298C137.521 207.073 139.812 205.811 142.091 204.511L140.109 201.036ZM126.472 208.314C124.149 209.473 121.826 210.594 119.508 211.677L121.202 215.301C123.55 214.204 125.904 213.067 128.258 211.892L126.472 208.314ZM112.462 214.864C110.073 215.909 107.698 216.912 105.342 217.875L106.855 221.578C109.24 220.603 111.646 219.587 114.065 218.529L112.462 214.864ZM98.1576 220.711C95.6985 221.647 93.2704 222.537 90.882 223.381L92.214 227.153C94.6329 226.298 97.0915 225.397 99.5812 224.449L98.1576 220.711ZM83.5479 225.869C81.0281 226.688 78.5671 227.451 76.1762 228.158L77.3109 231.994C79.7363 231.276 82.2313 230.503 84.7846 229.673L83.5479 225.869Z" fill="#7C69EF"/>
</svg>
